<svg width="256" height="256" viewBox="0 0 256 256" fill="none" xmlns="http://www.w3.org/2000/svg">
<mask id="mask0_0_1" style="mask-type:alpha" maskUnits="userSpaceOnUse" x="0" y="0" width="256" height="256">
<circle cx="128" cy="128" r="128" fill="#BF9553"/>
</mask>
<g mask="url(#mask0_0_1)">
<circle cx="128" cy="128" r="128" fill="#BF9553"/>
<ellipse cx="140.441" cy="139.309" rx="118.441" ry="122.309" fill="#522888"/>
<circle cx="35.872" cy="99.254" r="24.5" transform="rotate(-43.0879 35.872 99.254)" fill="#BF9553"/>
<ellipse cx="21.7367" cy="120.007" rx="17" ry="16" transform="rotate(-43.0879 21.7367 120.007)" fill="#BF9553"/>
<ellipse cx="36.9532" cy="71.1324" rx="15.5" ry="14.2988" transform="rotate(-43.0879 36.9532 71.1324)" fill="#BF9553"/>
<ellipse cx="35.4144" cy="100.358" rx="17.2575" ry="20.8321" transform="rotate(39.8421 35.4144 100.358)" fill="#522888"/>
<path d="M51.1274 125.942C55.334 130.439 46.9003 138.917 42.0468 143.457C37.1934 147.997 29.0499 148.779 24.8433 144.282C20.6367 139.785 21.9067 132.455 26.7602 127.915C31.6136 123.375 45.4815 121.507 51.1274 125.942Z" fill="#522888"/>
<path d="M63.4397 64.3155C67.7071 68.8777 64.4088 72.561 59.9721 76.7111C55.5354 80.8611 51.3309 81.3797 47.0635 76.8175C42.7961 72.2554 44.7452 64.202 49.1819 60.0519C53.6186 55.9019 59.1723 59.7533 63.4397 64.3155Z" fill="#522888"/>
<path d="M115.815 35.3987C109.63 36.2494 103.994 31.9438 103.227 25.782C102.459 19.6203 106.921 14.7188 113.106 13.8682C119.29 13.0175 124.926 17.3231 125.694 23.4849C126.461 29.6466 122 34.5481 115.815 35.3987Z" fill="#BF9553"/>
<path d="M91.2816 33.6589C85.0969 34.5095 79.461 30.204 78.6936 24.0422C77.9261 17.8804 82.3877 12.9789 88.5724 12.1283C94.7571 11.2777 100.393 15.5832 101.16 21.745C101.928 27.9068 97.4662 32.8083 91.2816 33.6589Z" fill="#BF9553"/>
<path d="M93.2261 28.6593C93.4191 35.3094 89.2483 33.4344 83.6167 33.5259C77.9852 33.6175 75.7503 39.4321 75.5573 32.782C75.3643 26.1319 76.9656 21.0702 82.5971 20.9786C88.2287 20.887 93.033 22.0092 93.2261 28.6593Z" fill="#BF9553"/>
<path d="M127.324 16.5966C128.83 18.1587 126.932 17.411 125.593 18.6684C124.254 19.9258 126.02 22.4301 124.515 20.8679C123.009 19.3057 121.555 17.7785 122.894 16.5211C124.233 15.2637 125.819 15.0344 127.324 16.5966Z" fill="#BF9553"/>
<path d="M113.054 33.2716C107.243 34.0708 101.948 30.0254 101.227 24.236C100.506 18.4465 104.698 13.8412 110.509 13.042C116.32 12.2427 121.615 16.2881 122.336 22.0776C123.057 27.8671 118.865 32.4724 113.054 33.2716Z" fill="#522888"/>
<path d="M121.185 92.132C111.172 99.7585 97.0096 97.7899 89.5518 87.7351C82.0939 77.6804 85.0648 64.6521 95.0773 57.0257C105.09 49.3992 119.252 51.3678 126.71 61.4225C134.168 71.4773 131.197 84.5056 121.185 92.132Z" fill="#BF9553"/>
<path d="M117.908 86.3834C108.991 93.1759 94.1707 93.2766 87.8952 84.8159C81.6198 76.3553 83.7617 63.9902 92.6793 57.1977C101.597 50.4052 116.417 50.3046 122.693 58.7652C128.968 67.2259 126.826 79.591 117.908 86.3834Z" fill="#522888"/>
<path d="M163.4 16.4203C163.852 22.2017 159.532 27.2545 153.75 27.7062C147.969 28.1579 142.916 23.8373 142.464 18.0559C142.013 12.2746 146.333 7.22169 152.115 6.77001C157.896 6.31834 162.949 10.6389 163.4 16.4203Z" fill="#BF9553"/>
<path d="M152.006 11.7938C152.35 16.1986 148.44 20.607 143.309 21.0079C138.178 21.4087 133.769 17.6502 133.425 13.2454C133.081 8.84051 136.961 4.94472 142.092 4.54387C147.223 4.14302 151.661 7.38892 152.006 11.7938Z" fill="#BF9553"/>
<path d="M143.296 21.3492C144.331 23.7688 139.34 26.8259 135.163 27.1523C130.986 27.4786 127.426 25.5177 127.212 22.7725C126.997 20.0273 130.21 17.5373 134.386 17.211C138.563 16.8847 142.262 18.9295 143.296 21.3492Z" fill="#522888"/>
<path d="M168.758 14.4904C169.059 18.341 166.294 21.9946 162.715 22.2742C159.136 22.5538 155.608 19.3918 155.307 15.5413C155.007 11.6907 157.664 8.34256 161.243 8.06295C164.822 7.78334 168.457 10.6399 168.758 14.4904Z" fill="#BF9553"/>
<path d="M171.043 24.3857C171.737 26.8392 168.824 29.6723 166.347 29.8658C163.869 30.0594 161.686 27.9846 161.471 25.2315C161.256 22.4785 163.232 20.1345 165.71 19.9409C168.188 19.7473 170.35 21.9323 171.043 24.3857Z" fill="#522888"/>
<path d="M64.7737 52.6757C63.9234 55.2317 61.2556 56.6456 58.815 55.8337C56.3744 55.0218 56.5694 47.8515 58.7773 48.2578C60.4648 48.5156 60.915 48.784 62.5633 47.0361C65.0039 47.848 65.624 50.1197 64.7737 52.6757Z" fill="#522888"/>
<path d="M52.2709 61.4273C54.1736 63.3341 54.2401 66.3527 52.4193 68.1695C50.5986 69.9862 44.6948 66.8879 45.8163 64.9911C46.2699 63.8447 46.575 62.9788 46.4926 60.6697C48.3133 58.8529 50.3682 59.5205 52.2709 61.4273Z" fill="#522888"/>
<path d="M69.3044 63.9803C67.4207 69.6428 61.4567 72.7571 55.9834 70.9363C50.5101 69.1156 47.6001 63.0492 49.4839 57.3867C51.3676 51.7242 57.3316 48.6099 62.8049 50.4307C68.2782 52.2515 71.1881 58.3178 69.3044 63.9803Z" fill="#BF9553"/>
<path d="M66.1285 62.0184C64.2216 67.7505 58.2388 70.9213 52.7656 69.1005C47.2923 67.2797 45.25 61.4823 47.1569 55.7502C49.0638 50.0181 55.0466 46.8474 60.5198 48.6681C65.9931 50.4889 68.0354 56.2863 66.1285 62.0184Z" fill="#522888"/>
<path d="M-7.90916 199.85L3.75889 190.065C25.2439 159.503 62.3977 116.82 104.236 166.503C146.074 216.185 174.304 160.716 183.879 123.249C193.454 85.7823 197.875 73.6592 211.951 -50.4592" stroke="#BF9553" stroke-width="19"/>
<path d="M7.9802 207.778L23.0688 192.56C55.6479 169.532 77.5746 155.348 86.6331 187.413C105.175 253.048 166.799 242.444 207.393 182.685C226.046 153.851 265.062 83.0577 271.905 30.5568" stroke="#BF9553" stroke-width="7"/>
<path d="M-6.16152 203.08L8.92703 187.863C41.5062 164.835 63.4329 150.65 72.4914 182.716C91.0331 248.35 152.657 237.747 193.251 177.988C211.904 149.154 241.082 72.3976 247.925 19.8967" stroke="#BF9553" stroke-width="3"/>
</g>
</svg>
